<svg width="66" height="66" xmlns="http://www.w3.org/2000/svg" xmlns:xlink="http://www.w3.org/1999/xlink" overflow="hidden"><defs><clipPath id="clip0"><rect x="61" y="239" width="66" height="66"/></clipPath></defs><g clip-path="url(#clip0)" transform="translate(-61 -239)"><path d="M62 291.698 62 251.217C62.1098 251.217 62.3293 251.109 62.4391 251.109 69.6844 251.109 76.9297 251 84.0652 251.217 92.7376 251.434 98.6655 256.535 100.422 264.891 100.861 267.062 100.971 269.233 101.19 271.512 101.3 273.465 101.3 275.419 101.41 277.264 101.739 280.519 103.825 282.364 107.009 282.473 110.631 282.581 112.607 280.953 113.046 277.264 113.156 275.961 113.266 274.55 113.266 273.14 113.376 266.194 113.266 259.14 113.266 252.194L113.266 251.217 126 251.217 126 252.411C126 260.225 126 268.039 126 275.853 126 278.132 125.78 280.302 125.012 282.581 123.475 287.574 119.962 290.504 114.913 291.698 109.643 293 104.264 293 99.1046 291.589 92.518 289.744 89.2247 285.078 88.6758 278.891 88.4563 276.178 88.6758 273.357 88.4563 270.643 88.1269 264.891 85.3825 262.07 79.5643 261.527 78.0274 261.419 76.3808 261.527 74.6244 261.527L74.6244 281.388C77.259 281.171 79.7839 281.279 82.199 280.953 84.2847 280.628 85.8216 279.326 87.1389 277.372 87.578 281.93 88.6758 285.946 91.9691 289.202 89.7736 290.287 87.6878 290.938 85.3825 291.264 83.4065 291.481 81.4305 291.589 79.4545 291.589 74.0755 291.698 68.6964 291.698 63.2075 291.698L62 291.698" fill="#D61B3C" fill-rule="evenodd"/></g></svg>